<?xml version="1.0" standalone="no"?>
<!DOCTYPE svg PUBLIC "-//W3C//DTD SVG 20010904//EN"
 "http://www.w3.org/TR/2001/REC-SVG-20010904/DTD/svg10.dtd">
<svg version="1.0" xmlns="http://www.w3.org/2000/svg"
 width="800.000000pt" height="800.000000pt" viewBox="0 0 800.000000 800.000000"
 preserveAspectRatio="xMidYMid meet">
<metadata>
Created by potrace 1.14, written by Peter Selinger 2001-2017
</metadata>
<g transform="translate(0.000000,800.000000) scale(0.100000,-0.100000)"
fill="#000000" stroke="none">
<path d="M510 7587 l0 -97 226 0 225 0 72 -62 c39 -35 82 -76 96 -91 15 -16
55 -52 91 -80 108 -85 249 -217 311 -292 151 -180 214 -263 246 -319 19 -34
45 -74 57 -91 50 -68 166 -276 253 -455 36 -74 74 -146 83 -160 9 -14 30 -50
45 -80 43 -83 165 -300 191 -340 36 -55 82 -162 109 -255 13 -47 38 -125 54
-174 19 -55 38 -147 51 -247 12 -87 37 -242 56 -344 19 -102 43 -243 54 -315
10 -71 28 -188 39 -260 12 -71 26 -179 32 -240 14 -148 30 -1008 32 -1725 2
-456 5 -593 15 -624 8 -21 19 -132 26 -246 14 -225 21 -253 71 -266 14 -3 25
-12 25 -20 0 -7 9 -18 19 -24 13 -7 354 -10 1035 -10 l1015 0 34 23 c47 30 56
70 73 322 7 116 19 242 25 280 6 45 10 263 8 610 -2 596 14 1506 30 1685 11
120 35 289 52 351 5 20 9 52 9 70 0 51 57 374 82 464 6 22 15 81 19 130 14
167 29 250 70 380 104 331 96 312 221 535 122 218 164 297 237 445 64 131 169
322 290 528 105 180 350 464 521 605 25 20 102 90 171 154 l126 118 222 0 221
0 0 100 0 100 -2997 0 c-1649 0 -3211 3 -3470 7 l-473 6 0 -96z"/>
</g>
</svg>
