<?xml version="1.0" standalone="no"?>
<!DOCTYPE svg PUBLIC "-//W3C//DTD SVG 20010904//EN"
 "http://www.w3.org/TR/2001/REC-SVG-20010904/DTD/svg10.dtd">
<svg
 width="700.000000pt" height="700.000000pt" viewBox="0 0 700.000000 700.000000"
 preserveAspectRatio="xMidYMid meet">
<metadata>
Created by potrace 1.11, written by Peter Selinger 2001-2013
</metadata>
<g transform="translate(0.000000,700.000000) scale(0.100000,-0.100000)"
fill="#000000" stroke="none">
<path d="M3407 6774 c-1 -1 -54 -4 -117 -8 -63 -3 -133 -8 -155 -11 -86 -11
-175 -24 -210 -31 -97 -21 -123 -26 -145 -30 -82 -16 -337 -95 -415 -128 -16
-7 -57 -24 -90 -37 -93 -36 -354 -170 -383 -196 -7 -7 -17 -13 -22 -13 -9 0
-218 -139 -261 -173 -14 -12 -39 -31 -53 -41 -15 -11 -35 -27 -45 -35 -82 -71
-114 -96 -123 -93 -5 1 -7 -1 -4 -6 7 -11 -101 -108 -115 -104 -6 1 -8 -1 -5
-6 3 -5 -20 -36 -52 -68 -68 -71 -157 -174 -196 -227 -15 -21 -32 -34 -38 -31
-7 4 -8 2 -4 -4 4 -7 2 -17 -3 -24 -63 -77 -171 -242 -232 -353 -23 -44 -46
-82 -49 -85 -4 -3 -10 -18 -14 -33 -4 -15 -10 -26 -15 -23 -4 3 -8 0 -8 -7 0
-22 -56 -136 -65 -131 -4 3 -5 -1 -2 -9 3 -8 -6 -38 -19 -68 -13 -30 -37 -90
-53 -134 -15 -44 -30 -82 -33 -85 -3 -3 -7 -14 -8 -25 -1 -11 -13 -63 -28
-115 -15 -52 -29 -104 -31 -115 -2 -11 -8 -43 -14 -71 -6 -28 -13 -64 -16 -80
-3 -16 -7 -36 -9 -44 -2 -8 -4 -28 -4 -43 -1 -16 -5 -26 -9 -23 -4 2 -6 -10
-4 -29 2 -18 -1 -36 -8 -40 -8 -5 -8 -10 1 -21 6 -8 8 -14 3 -14 -5 0 -10 -30
-11 -68 -4 -151 -5 -172 -14 -178 -5 -3 -6 -10 -3 -16 4 -6 8 -80 10 -164 1
-84 5 -157 8 -163 4 -5 2 -13 -4 -16 -8 -5 -7 -11 1 -21 6 -8 9 -25 7 -39 -3
-14 -2 -27 2 -30 3 -2 6 -20 5 -39 -1 -20 1 -36 4 -36 4 0 7 -10 8 -22 1 -33
10 -99 17 -128 3 -14 8 -36 10 -50 3 -14 12 -54 21 -89 9 -36 13 -71 11 -78
-3 -7 -1 -13 3 -13 5 0 14 -14 20 -30 7 -22 7 -30 -2 -30 -9 0 -9 -2 -1 -8 15
-9 35 -82 27 -95 -3 -6 -1 -7 5 -3 11 7 16 -12 15 -52 -1 -7 2 -11 5 -7 3 3
21 -36 39 -87 29 -81 55 -144 71 -172 3 -5 -1 -6 -9 -2 -8 4 -5 0 5 -8 11 -9
16 -16 10 -16 -5 0 -3 -4 4 -9 8 -5 15 -20 15 -34 1 -14 5 -23 9 -21 13 8 19
-17 7 -32 -10 -12 -9 -13 3 -9 16 6 43 -40 32 -56 -3 -5 0 -8 8 -7 7 2 12 -3
11 -9 -2 -7 2 -13 8 -13 5 0 7 -4 4 -10 -3 -6 -1 -10 4 -10 6 0 11 -7 11 -16
0 -9 -5 -12 -12 -8 -6 4 -8 3 -5 -3 8 -12 -12 -123 -22 -123 -3 0 -7 -18 -8
-40 0 -22 -6 -46 -12 -54 -6 -7 -8 -16 -5 -19 3 -3 2 -12 -2 -19 -5 -7 -9 -17
-9 -23 -2 -33 -18 -94 -24 -91 -3 3 -6 -8 -5 -22 1 -15 -3 -33 -9 -40 -5 -7
-7 -15 -5 -18 3 -3 -1 -26 -9 -52 -7 -26 -16 -63 -19 -82 -3 -19 -15 -68 -26
-110 -11 -41 -26 -100 -33 -130 -7 -30 -23 -100 -36 -155 -12 -55 -26 -102
-29 -105 -3 -3 -5 -12 -5 -20 1 -8 -3 -26 -8 -40 -5 -14 -10 -36 -12 -50 -6
-39 -32 -147 -39 -158 -3 -5 -8 -25 -10 -43 -3 -19 -16 -76 -30 -127 l-24 -93
30 5 c16 2 32 7 36 10 3 3 12 0 20 -7 10 -7 13 -8 9 -1 -8 14 76 40 94 29 8
-5 10 -4 5 3 -4 7 -1 12 6 13 7 0 22 3 33 5 11 3 27 7 35 8 8 2 23 7 33 11 10
4 26 9 35 10 10 1 24 4 32 7 8 4 30 11 49 17 29 10 32 9 26 -7 -4 -12 -1 -11
15 6 11 12 27 22 35 22 8 0 34 6 57 14 24 8 57 17 73 19 17 3 45 11 63 17 18
7 39 9 48 6 8 -3 17 1 20 8 3 8 16 13 29 11 14 -1 22 2 19 6 -4 8 34 14 58 10
5 0 8 4 8 10 0 8 6 7 17 -2 9 -8 14 -9 10 -3 -8 14 76 40 94 29 8 -5 10 -4 5
3 -7 11 12 16 52 15 6 -1 12 4 12 9 0 6 13 8 33 4 17 -3 26 -2 20 2 -8 5 1 12
27 19 36 9 39 9 28 -6 -7 -9 -1 -6 12 5 14 12 33 20 42 19 10 -2 18 1 18 6 0
5 8 9 18 9 9 0 53 11 96 25 44 14 82 22 84 20 3 -3 12 0 19 7 11 9 16 9 22 -1
6 -10 10 -8 15 5 3 9 9 14 13 11 3 -4 12 -2 20 4 10 9 13 8 13 0 0 -8 6 -6 16
4 14 13 19 14 25 3 5 -7 9 -10 9 -5 0 4 14 0 31 -8 26 -14 29 -19 18 -33 -11
-14 -11 -15 1 -4 20 17 33 15 26 -4 -5 -13 -3 -14 7 -6 17 14 42 -1 32 -19 -6
-11 -5 -11 4 -3 9 9 32 2 91 -27 44 -22 84 -39 91 -39 6 0 8 -7 5 -16 -5 -14
-4 -15 9 -4 8 7 15 8 15 3 0 -5 6 -10 14 -10 8 0 31 -8 52 -18 22 -11 46 -20
55 -22 9 -1 36 -11 60 -21 25 -11 59 -23 77 -27 18 -3 30 -10 28 -13 -2 -4 6
-8 17 -9 56 -5 97 -16 97 -25 0 -5 6 -8 13 -5 6 2 22 0 35 -4 12 -5 34 -11 49
-13 14 -3 30 -11 35 -18 6 -10 8 -10 8 2 0 9 3 11 8 5 4 -5 23 -11 42 -13 19
-1 42 -5 50 -9 20 -8 29 -10 68 -11 23 -2 31 -6 26 -14 -5 -10 -4 -10 6 -1 11
10 16 9 27 -5 8 -9 12 -12 9 -5 -5 8 9 10 51 6 75 -6 86 -10 77 -25 -6 -10 -4
-10 7 -2 8 6 39 10 69 8 30 -1 82 -4 115 -5 33 -1 63 -7 67 -13 5 -8 8 -7 8 2
0 6 5 12 11 12 5 0 7 -6 3 -12 -6 -10 -4 -10 7 -1 17 17 32 17 23 1 -6 -10 -4
-10 7 -3 17 13 78 13 98 1 10 -6 12 -5 7 2 -10 16 7 15 23 -1 11 -9 13 -9 7 0
-4 7 -2 13 3 13 6 0 11 -6 11 -12 0 -9 4 -8 10 2 9 13 10 13 10 0 0 -11 2 -12
8 -3 5 8 43 15 97 18 50 3 129 11 178 18 59 9 87 10 87 3 0 -7 3 -7 8 0 12 19
69 25 82 9 7 -8 17 -15 23 -15 6 0 2 7 -9 15 -10 8 -17 15 -14 15 31 7 40 7
40 -3 0 -6 7 -2 15 9 8 10 15 15 15 11 0 -4 8 -3 18 2 13 7 23 6 32 -2 7 -7
10 -7 7 -1 -4 6 8 15 28 22 19 5 33 6 30 2 -3 -5 8 -2 25 6 16 9 34 13 40 9 5
-3 10 -1 10 4 0 6 5 11 11 11 6 0 8 -8 5 -17 -4 -11 1 -9 13 6 12 16 24 22 35
18 10 -4 15 -3 11 3 -3 6 5 10 19 10 14 0 28 5 31 10 3 6 12 10 20 10 8 0 26
5 42 12 15 6 33 12 38 14 6 1 27 9 48 18 21 9 43 14 49 10 7 -5 8 -2 3 6 -6
10 -4 12 8 7 10 -3 17 -3 17 2 0 5 15 14 33 21 17 7 75 34 129 60 72 36 99 45
108 36 8 -8 9 -6 4 8 -5 13 -4 17 3 13 6 -4 13 -4 15 1 5 12 98 64 98 55 0 -4
5 0 11 10 5 9 17 17 24 17 8 0 15 5 15 11 0 6 7 8 16 5 8 -3 13 -2 9 3 -7 12
54 43 68 34 5 -3 7 -1 4 4 -4 6 19 28 51 49 31 22 68 49 81 62 14 12 31 20 38
18 8 -3 12 -2 9 3 -3 5 10 19 29 32 19 13 35 28 35 32 0 5 5 5 10 2 6 -3 10 0
10 8 0 16 26 31 33 19 2 -4 2 -1 1 5 -4 15 30 35 41 25 5 -4 5 -2 2 4 -9 15
48 68 64 59 8 -6 10 -4 5 4 -10 15 52 73 67 64 6 -3 7 -1 3 5 -9 15 62 84 76
75 6 -3 8 -1 4 5 -8 13 73 104 85 96 5 -3 7 -9 4 -14 -3 -5 -1 -11 4 -14 11
-7 9 13 -2 32 -10 15 1 34 15 26 6 -4 8 -3 5 3 -3 5 2 16 11 25 9 9 33 38 52
66 20 29 41 49 48 47 7 -3 10 0 7 5 -9 14 25 60 44 60 14 0 14 2 1 10 -14 9
-7 14 13 11 5 -1 6 3 3 8 -4 5 -1 15 6 23 7 7 19 25 27 40 8 16 18 28 23 28 4
0 8 6 8 14 0 8 6 21 14 28 7 8 21 29 31 48 9 18 21 38 27 44 11 13 36 60 105
199 27 53 53 94 58 90 4 -5 5 -2 1 4 -4 7 0 27 8 45 26 58 92 231 112 295 10
35 23 63 27 63 5 0 6 4 2 9 -3 6 4 45 16 88 27 99 30 115 31 131 1 6 4 12 7
12 3 0 7 12 7 28 4 67 28 191 37 185 5 -3 4 4 -2 14 -6 11 -8 22 -6 24 5 5 17
96 17 127 0 12 4 25 9 27 4 3 4 19 -1 35 -5 17 -6 30 -2 30 8 0 7 347 -1 407
-4 28 -2 43 6 47 9 3 9 5 0 5 -7 1 -13 10 -13 22 0 12 4 17 11 13 6 -3 4 4 -4
17 -8 13 -14 39 -13 57 0 17 -1 32 -4 32 -5 0 -13 63 -14 117 -1 17 -4 29 -8
26 -5 -2 -8 8 -9 24 0 15 -3 37 -5 48 -3 11 -7 29 -9 40 -2 11 -7 31 -10 45
-3 14 -8 36 -11 50 -3 14 -16 62 -30 107 -14 46 -22 88 -18 95 4 6 3 8 -4 4
-6 -3 -14 7 -18 26 -10 42 -9 40 -18 60 -4 9 -4 22 0 29 4 7 3 9 -3 6 -6 -4
-14 5 -18 20 -3 15 -18 52 -31 81 -13 29 -22 58 -19 63 4 5 2 9 -3 9 -5 0 -21
28 -36 63 -15 34 -32 71 -38 82 -6 11 -25 45 -41 75 -16 30 -34 61 -40 67 -5
7 -6 21 -3 30 4 10 4 14 0 10 -11 -10 -34 13 -34 34 0 11 -4 19 -8 19 -5 0
-17 17 -28 37 -10 21 -26 46 -35 55 -9 10 -22 30 -30 45 -8 15 -21 35 -29 44
-29 34 -40 48 -40 54 0 3 -11 18 -25 33 -14 15 -25 32 -25 39 0 7 -4 13 -8 13
-5 0 -31 28 -59 63 -82 100 -216 242 -274 291 -18 15 -27 31 -23 37 4 8 3 9
-5 5 -6 -4 -17 -1 -25 6 -18 18 -90 78 -166 139 -81 64 -369 255 -400 264 -23
7 -39 18 -35 25 3 4 -1 7 -8 7 -6 -1 -49 17 -95 40 -46 23 -93 45 -105 49 -12
3 -30 13 -39 22 -10 8 -18 12 -18 9 0 -3 -24 4 -52 17 -164 71 -518 170 -683
191 -11 1 -47 6 -80 10 -33 3 -71 9 -85 11 -60 10 -424 26 -433 18z"/>
<path d="M6550 2481 c0 -6 4 -13 10 -16 6 -3 7 1 4 9 -7 18 -14 21 -14 7z"/>
<path d="M6355 2209 c-4 -6 -5 -12 -2 -15 2 -3 7 2 10 11 7 17 1 20 -8 4z"/>
<path d="M635 2140 c3 -5 8 -10 11 -10 2 0 4 5 4 10 0 6 -5 10 -11 10 -5 0 -7
-4 -4 -10z"/>
<path d="M679 2033 c-13 -16 -12 -17 4 -4 9 7 17 15 17 17 0 8 -8 3 -21 -13z"/>
<path d="M6235 1991 c-3 -5 -2 -12 3 -15 5 -3 9 1 9 9 0 17 -3 19 -12 6z"/>
<path d="M6053 1689 c-2 -23 3 -25 10 -4 4 8 3 16 -1 19 -4 3 -9 -4 -9 -15z"/>
<path d="M6109 1683 c-13 -16 -12 -17 4 -4 16 13 21 21 13 21 -2 0 -10 -8 -17
-17z"/>
<path d="M6006 1662 c-3 -5 1 -9 9 -9 8 0 12 4 9 9 -3 4 -7 8 -9 8 -2 0 -6 -4
-9 -8z"/>
<path d="M5675 1291 c-3 -5 -2 -12 3 -15 5 -3 9 1 9 9 0 17 -3 19 -12 6z"/>
<path d="M5570 1179 c0 -5 5 -7 10 -4 6 3 10 8 10 11 0 2 -4 4 -10 4 -5 0 -10
-5 -10 -11z"/>
<path d="M5507 1119 c7 -7 15 -10 18 -7 3 3 -2 9 -12 12 -14 6 -15 5 -6 -5z"/>
<path d="M5196 918 c3 -5 10 -6 15 -3 13 9 11 12 -6 12 -8 0 -12 -4 -9 -9z"/>
<path d="M5235 900 c-3 -5 -1 -10 4 -10 6 0 11 5 11 10 0 6 -2 10 -4 10 -3 0
-8 -4 -11 -10z"/>
<path d="M5076 847 c3 -10 9 -15 12 -12 3 3 0 11 -7 18 -10 9 -11 8 -5 -6z"/>
<path d="M1906 841 c-3 -4 6 -7 19 -7 14 0 22 2 19 5 -8 8 -34 10 -38 2z"/>
<path d="M5110 841 c0 -6 4 -12 8 -15 5 -3 9 1 9 9 0 8 -4 15 -9 15 -4 0 -8
-4 -8 -9z"/>
<path d="M5150 839 c0 -5 5 -7 10 -4 6 3 10 8 10 11 0 2 -4 4 -10 4 -5 0 -10
-5 -10 -11z"/>
<path d="M1775 809 c-4 -6 -5 -12 -2 -15 2 -3 7 2 10 11 7 17 1 20 -8 4z"/>
<path d="M1896 807 c3 -10 9 -15 12 -12 3 3 0 11 -7 18 -10 9 -11 8 -5 -6z"/>
<path d="M1686 798 c3 -5 10 -6 15 -3 13 9 11 12 -6 12 -8 0 -12 -4 -9 -9z"/>
<path d="M5070 801 c0 -6 4 -13 10 -16 6 -3 7 1 4 9 -7 18 -14 21 -14 7z"/>
<path d="M1855 780 c3 -5 8 -10 11 -10 2 0 4 5 4 10 0 6 -5 10 -11 10 -5 0 -7
-4 -4 -10z"/>
<path d="M5010 780 c0 -5 5 -10 11 -10 5 0 7 5 4 10 -3 6 -8 10 -11 10 -2 0
-4 -4 -4 -10z"/>
<path d="M1593 765 c0 -8 4 -15 9 -15 4 0 8 4 8 9 0 6 -4 12 -8 15 -5 3 -9 -1
-9 -9z"/>
<path d="M2013 751 c0 -11 5 -18 9 -15 4 3 5 11 1 19 -7 21 -12 19 -10 -4z"/>
<path d="M2050 739 c0 -5 5 -7 10 -4 6 3 10 8 10 11 0 2 -4 4 -10 4 -5 0 -10
-5 -10 -11z"/>
<path d="M1534 696 c1 -8 5 -18 8 -22 4 -3 5 1 4 10 -1 8 -5 18 -8 22 -4 3 -5
-1 -4 -10z"/>
<path d="M1336 678 c3 -5 10 -6 15 -3 13 9 11 12 -6 12 -8 0 -12 -4 -9 -9z"/>
<path d="M4775 680 c3 -5 8 -10 11 -10 2 0 4 5 4 10 0 6 -5 10 -11 10 -5 0 -7
-4 -4 -10z"/>
<path d="M1375 659 c-3 -4 2 -6 10 -5 21 3 28 13 10 13 -9 0 -18 -4 -20 -8z"/>
<path d="M2255 660 c3 -5 8 -10 11 -10 2 0 4 5 4 10 0 6 -5 10 -11 10 -5 0 -7
-4 -4 -10z"/>
<path d="M4870 660 c0 -5 5 -10 11 -10 5 0 7 5 4 10 -3 6 -8 10 -11 10 -2 0
-4 -4 -4 -10z"/>
<path d="M2315 649 c-4 -6 -5 -12 -2 -15 2 -3 7 2 10 11 7 17 1 20 -8 4z"/>
<path d="M1310 640 c0 -5 5 -10 11 -10 5 0 7 5 4 10 -3 6 -8 10 -11 10 -2 0
-4 -4 -4 -10z"/>
<path d="M4666 638 c3 -5 10 -6 15 -3 13 9 11 12 -6 12 -8 0 -12 -4 -9 -9z"/>
<path d="M2255 621 c-3 -5 -2 -12 3 -15 5 -3 9 1 9 9 0 17 -3 19 -12 6z"/>
<path d="M2387 619 c7 -7 15 -10 18 -7 3 3 -2 9 -12 12 -14 6 -15 5 -6 -5z"/>
<path d="M4675 609 c-4 -6 -5 -12 -2 -15 2 -3 7 2 10 11 7 17 1 20 -8 4z"/>
<path d="M4550 600 c0 -5 5 -10 10 -10 6 0 10 5 10 10 0 6 -4 10 -10 10 -5 0
-10 -4 -10 -10z"/>
<path d="M4590 600 c0 -5 5 -10 11 -10 5 0 7 5 4 10 -3 6 -8 10 -11 10 -2 0
-4 -4 -4 -10z"/>
<path d="M2375 591 c-3 -5 -2 -12 3 -15 5 -3 9 1 9 9 0 17 -3 19 -12 6z"/>
<path d="M1095 580 c-3 -5 -1 -10 4 -10 6 0 11 5 11 10 0 6 -2 10 -4 10 -3 0
-8 -4 -11 -10z"/>
<path d="M1136 582 c-2 -4 -1 -14 4 -22 7 -11 9 -9 7 8 -1 24 -3 26 -11 14z"/>
<path d="M873 565 c0 -8 4 -12 9 -9 5 3 6 10 3 15 -9 13 -12 11 -12 -6z"/>
<path d="M2475 571 c-3 -5 -2 -12 3 -15 5 -3 9 1 9 9 0 17 -3 19 -12 6z"/>
<path d="M2549 563 c-13 -16 -12 -17 4 -4 9 7 17 15 17 17 0 8 -8 3 -21 -13z"/>
<path d="M827 559 c7 -7 15 -10 18 -7 3 3 -2 9 -12 12 -14 6 -15 5 -6 -5z"/>
<path d="M974 562 c4 -3 14 -7 22 -8 9 -1 13 0 10 4 -4 3 -14 7 -22 8 -9 1
-13 0 -10 -4z"/>
<path d="M2506 558 c3 -5 10 -6 15 -3 13 9 11 12 -6 12 -8 0 -12 -4 -9 -9z"/>
<path d="M777 515 c-4 -8 -3 -16 1 -19 4 -3 9 4 9 15 2 23 -3 25 -10 4z"/>
<path d="M915 520 c3 -5 8 -10 11 -10 2 0 4 5 4 10 0 6 -5 10 -11 10 -5 0 -7
-4 -4 -10z"/>
<path d="M2694 522 c4 -3 14 -7 22 -8 9 -1 13 0 10 4 -4 3 -14 7 -22 8 -9 1
-13 0 -10 -4z"/>
<path d="M2590 499 c0 -5 5 -7 10 -4 6 3 10 8 10 11 0 2 -4 4 -10 4 -5 0 -10
-5 -10 -11z"/>
<path d="M550 476 c7 -7 13 -7 20 0 6 6 3 10 -10 10 -13 0 -16 -4 -10 -10z"/>
<path d="M2773 465 c0 -8 4 -12 9 -9 5 3 6 10 3 15 -9 13 -12 11 -12 -6z"/>
<path d="M2815 460 c3 -5 8 -10 11 -10 2 0 4 5 4 10 0 6 -5 10 -11 10 -5 0 -7
-4 -4 -10z"/>
<path d="M2855 460 c3 -5 8 -10 11 -10 2 0 4 5 4 10 0 6 -5 10 -11 10 -5 0 -7
-4 -4 -10z"/>
<path d="M3950 460 c0 -5 5 -10 11 -10 5 0 7 5 4 10 -3 6 -8 10 -11 10 -2 0
-4 -4 -4 -10z"/>
<path d="M4256 458 c3 -4 11 -5 19 -1 21 7 19 12 -4 10 -11 0 -18 -5 -15 -9z"/>
<path d="M3870 456 c0 -2 8 -10 18 -17 15 -13 16 -12 3 4 -13 16 -21 21 -21
13z"/>
<path d="M550 446 c0 -2 7 -7 16 -10 8 -3 12 -2 9 4 -6 10 -25 14 -25 6z"/>
<path d="M3915 440 c3 -5 8 -10 11 -10 2 0 4 5 4 10 0 6 -5 10 -11 10 -5 0 -7
-4 -4 -10z"/>
<path d="M4016 438 c3 -5 10 -6 15 -3 13 9 11 12 -6 12 -8 0 -12 -4 -9 -9z"/>
<path d="M4057 435 c-4 -8 -3 -16 1 -19 4 -3 9 4 9 15 2 23 -3 25 -10 4z"/>
<path d="M2916 418 c3 -4 11 -5 19 -1 21 7 19 12 -4 10 -11 0 -18 -5 -15 -9z"/>
<path d="M3759 413 c-13 -16 -12 -17 4 -4 16 13 21 21 13 21 -2 0 -10 -8 -17
-17z"/>
<path d="M3633 405 c0 -8 4 -12 9 -9 5 3 6 10 3 15 -9 13 -12 11 -12 -6z"/>
<path d="M3326 398 c3 -5 10 -6 15 -3 13 9 11 12 -6 12 -8 0 -12 -4 -9 -9z"/>
<path d="M3519 393 c-13 -16 -12 -17 4 -4 16 13 21 21 13 21 -2 0 -10 -8 -17
-17z"/>
<path d="M3413 385 c0 -8 4 -12 9 -9 5 3 6 10 3 15 -9 13 -12 11 -12 -6z"/>
<path d="M3136 378 c3 -4 11 -5 19 -1 21 7 19 12 -4 10 -11 0 -18 -5 -15 -9z"/>
<path d="M3455 380 c-3 -5 -1 -10 4 -10 6 0 11 5 11 10 0 6 -2 10 -4 10 -3 0
-8 -4 -11 -10z"/>
<path d="M3680 380 c-12 -7 -10 -9 7 -7 12 0 19 5 17 9 -6 10 -6 10 -24 -2z"/>
<path d="M3766 382 c-3 -5 1 -9 9 -9 8 0 12 4 9 9 -3 4 -7 8 -9 8 -2 0 -6 -4
-9 -8z"/>
<path d="M3236 367 c3 -10 9 -15 12 -12 3 3 0 11 -7 18 -10 9 -11 8 -5 -6z"/>
<path d="M3556 322 c-3 -5 1 -9 9 -9 8 0 12 4 9 9 -3 4 -7 8 -9 8 -2 0 -6 -4
-9 -8z"/>
</g>
</svg>
